<?xml version="1.0" encoding="utf-8"?>
<!-- Generator: Adobe Illustrator 27.5.0, SVG Export Plug-In . SVG Version: 6.00 Build 0)  -->
<svg version="1.1" id="Layer_1" xmlns="http://www.w3.org/2000/svg" xmlns:xlink="http://www.w3.org/1999/xlink" x="0px" y="0px"
	 viewBox="0 0 2000 2000" style="enable-background:new 0 0 2000 2000;" xml:space="preserve">
<rect x="0" style="fill:#FFFFFF;" width="2000" height="2000"/>
<g>
	<path style="fill:#FDE9E4;" d="M271.855,1855.293c-132.014-158.043-141.11-415.963-9.097-665.376s-248-571.286,120-887.286
		c211.98-182.026,788.815-247.839,1223.54,248.241c367.61,419.495,228.461,1108.878-30.119,1304.421
		C738.635,1855.293,271.855,1855.293,271.855,1855.293z"/>
	<path style="opacity:0.25;fill:#FFFFFF;" d="M201.146,467.655c37.629-5.669,75.866-0.917,113.683-4.476
		c37.807-3.558,75.027-15.509,109.102-35.032c9.434-5.405,18.755-11.44,28.976-14.261c13.729-3.79,28.059-1.53,42.152-0.856
		c27.466,1.314,55.139-3.563,81.061-14.287c8.754-3.622,18.522-9.611,19.964-20.358c1.841-13.72-10.914-23.53-22.064-28.236
		c-11.151-4.706-24.534-10.512-26.941-24.11c-1.082-6.11,0.372-13.015-2.451-18.308c-1.928-3.615-5.427-5.579-8.767-7.267
		c-37.022-18.693-77.264-25.997-117.313-27.955c-8.776-0.429-17.828-0.058-26.961,0.406c47.953-32.227,98.75-59.302,151.886-80.467
		c25.407,1.582,50.879,1.962,76.394,1.056c53.395-1.895,110.792-8.01,156.384,24.614c5.92,4.236,11.886,9.643,13.835,17.444
		c4.812,19.254-16.176,32.402-32.775,37.315c-2.617,13.346,12.42,20.925,23.926,23.313c37.099,7.698,73.636,19.111,109.081,34.076
		c25.133,10.611,53.036,27.56,57.986,58.324c3.48,21.636-6.444,44.015-21.079,57.82c-14.636,13.807-33.268,20.366-51.713,24.557
		c-62.796,14.264-127.728,4.473-191.404,11.592c-8.493,0.95-17.37,2.38-24.283,8.239c-10.935,9.266-13.869,26.644-21.516,39.672
		c-15.183,25.868-45.622,30.595-72.373,32.305c-59.571,3.808-119.294,4.378-178.909,1.708c-15.022-0.673-30.328-1.516-44.835,3.101
		c-15.253,4.854-28.632,15.422-42.765,23.717c-33.605,19.726-71.471,26.578-108.624,33.23
		c-38.119,6.825-76.563,13.699-115.037,12.601c30.092-59.286,65.195-114.663,104.585-165.385
		C187.249,470.128,194.174,468.705,201.146,467.655z"/>
	<path style="opacity:0.25;fill:#FFFFFF;" d="M602.262,1033.009c5.844-9.415,14.783-15.437,23.635-20.72
		c130.097-77.632,285.225-50.674,430.758-64.24c37.262-3.474,75.061-9.984,108.625-29.263
		c39.193-22.512,73.358-62.465,116.921-65.643c30.615-2.234,71.184,9.1,84.338-23.375c3.238-7.996,3.061-17.165,4.043-25.939
		c13.352-119.399,206.537-84.689,225.38-83.658c46.155,2.523,92.309,5.047,138.464,7.571
		c45.656,62.732,84.921,132.045,116.637,206.542c-43.396-0.476-86.796-0.805-130.191-1.289c-21.405-0.239-43.209-0.414-63.68,6.923
		c-27.906,10.001-51.266,33.226-79.093,43.523c-21.377,7.91-44.229,7.776-66.645,7.569c-81.098-0.747-162.196-1.495-243.295-2.243
		c-15.314-0.141-31.064-0.193-45.327,6.344c-14.003,6.417-25.389,18.643-38.04,28.166c-41.752,31.433-94.383,31.949-143.116,42.926
		c-15.468,3.482-32.501,9.637-39.908,25.926c-12.337,27.135,11.012,58.188,34.566,71.732
		c94.538,54.363,210.943,1.625,311.549,38.086c26.904,9.749,51.856,25.644,78.077,37.684
		c85.989,39.485,181.685,36.02,273.533,24.695c77.741-9.584,155.807-24.388,233.656-21.942c5.841,47.682,8.876,96.424,8.876,146
		c0,15.545-0.331,30.998-0.92,46.374c-43.434,1.146-86.867,2.291-130.301,3.437c-82.038,2.163-164.252,4.322-246.042-3.455
		c-45.824-4.357-92.017-12.012-134.517-32.561c-25.627-12.392-49.646-29.35-76.002-39.422
		c-46.345-17.712-96.381-12.987-145.066-15.85c-75.191-4.421-148.591-27.275-221.334-50.006
		c-112.075-35.019-388.209-87.452-395.294-220.176C591.737,1061.484,594.598,1045.357,602.262,1033.009z"/>
	<g>
		<path style="fill:#F7CC7F;" d="M1718.368,1855.997c-0.006,5.71-4.639,10.334-10.348,10.328l-1534.74-1.434
			c-5.71-0.005-10.334-4.638-10.329-10.348l0,0c0.006-5.71,4.639-10.334,10.348-10.328l1534.74,1.434
			C1713.749,1845.654,1718.373,1850.287,1718.368,1855.997L1718.368,1855.997z"/>
	</g>
	<g>
		<g>
			<g>
				<path style="fill:#13375B;" d="M1478.182,441.847c6.579-0.816,13.117-1.918,19.545-3.547c7.265-1.84,16.601-3.826,22.188-3.557
					c11.757,0.567,31.101,5.737,39.52,19.676c10.49,17.363,36.871,10.273,16.428,85.831c-23.142,85.525-69.374,66.184-70.244,64.478
					c-0.87-1.705-31.651-64.194-31.651-64.194s-21.137,28.982-20.896,27.809C1453.3,567.211,1399.157,451.659,1478.182,441.847z"/>
				<path style="fill:#F7A491;" d="M1114.522,586.241c2.672-5.854,27.388,11.035,32.773,7.688c5.385-3.35,12.587-7.482,15.16-11.456
					c2.573-3.972,8.396-1.994,13.054-5.028c4.657-3.036,20.129,20.916,28.266,23.933c8.137,3.021,12.58-29.284,20.22-28.093
					c7.638,1.193-19.952,60.071-18.294,64.665c1.652,4.579,32.023,106.995,50.035,135.908c10.542-5.211,71.892-27.615,81.677-32.717
					c4.256,22.33,17.778,39.267,23.269,61.167c-34.006,15.481-127.469,44.269-137.451,40.741
					c-30.396-10.736-47.256-157.375-52.476-184.707c-5.225-27.357-18.225-32.564-25.783-46.864
					C1137.415,597.18,1111.853,592.093,1114.522,586.241z"/>
				<path style="fill:#EAB054;" d="M1309.09,837.724c0,0,131.769-38.329,164.507-65.977c32.739-27.647,39.034-91.482,7.871-113.105
					c-31.164-21.623-196.476,90.437-196.476,90.437L1309.09,837.724z"/>
				<path style="fill:#F7A491;" d="M1354.19,1756.747c0,0,2.619,47.133,2.635,47.229c0.964,5.984,4.755,20.769,4.755,26.209
					c0,20.437-89.267-17.348-69.262-26.404c1.811-0.82,11.298-7.021,11.894-13.976c0.918-10.717,3.245-32.397,3.245-32.397
					L1354.19,1756.747z"/>
				<path style="fill:#F47458;" d="M1292.539,1803.586c0,0,20.958,6.251,31.691,7.814c10.736,1.563,24.888-11.596,32.48-8.043
					c8.358,3.914,7.513,42.438,7.513,42.438s-128.038,4.91-142.575-1.496C1209.59,1838.986,1249.692,1818.147,1292.539,1803.586z"/>
				<path style="fill:#F7A491;" d="M1550.864,1759.791c0,0,2.618,47.133,2.633,47.229c0.965,5.984,4.755,20.771,4.755,26.209
					c0,20.437-89.268-17.348-69.262-26.404c1.81-0.82,14.111-11.647,14.707-18.604c0.916-10.717,0.432-27.769,0.432-27.769
					L1550.864,1759.791z"/>
				<path style="fill:#F47458;" d="M1489.213,1806.63c0,0,20.956,6.252,31.691,7.814c10.734,1.563,24.886-11.598,32.479-8.043
					c8.355,3.914,8.689,33.706,8.689,39.13c0,5.425-111.313,6.41-147.723,0.54
					C1401.345,1843.975,1446.366,1821.191,1489.213,1806.63z"/>
				<path style="fill:#355389;" d="M1409.4,1079.404l-37.741,16.584l-79.388,386.177l3.217,289.505l63.642,1.507
					c0,0,29.601-253.241,29.601-272.867c0-19.625,137.106-343.444,137.106-343.444L1409.4,1079.404z"/>
				<path style="fill:#466EB6;" d="M1438.531,1100.655c0,0,27.805,297.536,27.805,347.691c0,50.154,22.543,330.86,22.543,330.86
					l63.791-0.376c0,0,4.604-85.562,11.442-211.437c1.071-19.714-1.38-59.491,0-79.9c9.925-146.787,29.553-284.973,20.177-339.747
					c-1.508-8.817-4.345-31.87-9.866-37.689C1532.646,1066.034,1438.531,1100.655,1438.531,1100.655z"/>
				<path style="fill:#F7CC7F;" d="M1543.6,655.689c0,0,44.02,6.234,55.604,14.902c13.05,9.762,27.528,31.6,27.528,31.6
					s-54.043,260.223-54.141,304.01c-0.075,33.877,11.701,117.059,11.701,117.059s-163.318,10.501-225.174-14.37
					c0,0,19.535-98.93,19.535-124.907c0-25.976,23.361-262.193,28.679-278.69c4.826-14.968,13.642-41.865,43.486-48.497
					C1480.659,650.163,1543.6,655.689,1543.6,655.689z"/>
				<path style="fill:#F7A491;" d="M1531.581,585.63l10.895,72.666c0,0-39.79,86.521-63.545,79.017
					c-19.931-6.295-7.669-82.852-7.669-82.852c0.298-1.909,11.256-43.638,7.605-61.686
					C1474.736,572.36,1531.581,585.63,1531.581,585.63z"/>
				<path style="fill:#F47458;" d="M1478.867,592.774c-3.258-20.572,52.714-7.144,52.714-7.144l0.902,6.026l1.667,11.118
					c0,0-18.977,45.011-59.948,38.742C1475.892,630.424,1480.201,601.211,1478.867,592.774z"/>
				<g>
					<g>
						<path style="fill:#FAE1B4;" d="M1368.134,994.5l5.478,16.818c2.488,7.641,10.699,11.816,18.34,9.328l8.168-2.66
							c7.641-2.488,11.816-10.699,9.328-18.34l-5.477-16.818L1368.134,994.5z"/>
						
							<rect x="1277.956" y="891.341" transform="matrix(-0.3097 -0.9508 0.9508 -0.3097 916.3519 2485.6582)" style="fill:#B75742;" width="165.073" height="37.689"/>
						<path style="fill:#FAE1B4;" d="M1316.15,792.827l0.865,44.714c7.939,7.584,15.516,9.873,17.918-5.836
							c11.012,4.371,21.193,12.692,17.917-5.835l-25.633-36.648L1316.15,792.827z"/>
						<path style="fill:#A1A1A1;" d="M1367.459,993.44l1.235,3.792c0.175,0.539,0.754,0.833,1.293,0.658l34.482-11.23
							c0.538-0.175,0.833-0.754,0.657-1.293l-1.235-3.792c-0.175-0.539-0.754-0.833-1.293-0.658l-34.481,11.23
							C1367.578,992.323,1367.283,992.902,1367.459,993.44z"/>
						<path style="fill:#F47458;" d="M1316.15,792.827c3.543,2.551,7.233,1.35,11.067-3.605c0,0-9.661-14.479-10.222-14.382
							C1316.063,775.002,1316.15,792.827,1316.15,792.827z"/>
					</g>
				</g>
				<path style="fill:#F7A491;" d="M1337.854,939.237c1.317-0.968,1.184-1.711,1.184-1.711c-1.655-2.233-1.026-10.313,1.707-12.003
					c2.732-1.69,8.062-2.199,18.373-3.981c8.832-1.526,21.743-3.483,26.818-5.985c12.109,0.412,23.14,9.933,31.691,13.016
					c2.017,0.728,39.828-0.8,49.631-1.175c10.64-0.411,18.871-1.367,18.871-1.367s62.523-9.212,127.682-14.006l-11.615-53.646
					l61.442-7.106c4.153,30.43,15.089,77.659,15.579,92.026c0.966,28.264-95.42,25.377-180.727,21.429h-0.004
					c-9.381-0.435-18.228-0.894-26.299-1.337c-10.995-0.188-29.416,0.981-37.912,1.469l0,0c-5.332,0.759-12.645,1.867-13.557,2.347
					c-1.456,0.767-11.21,2.593-12.044,2.648c-0.833,0.056-4.224,1.958-5.677,2.726c-1.456,0.767-21.001,1.407-24.168,1.619
					c-3.167,0.213-10.155-1.663-10.155-1.663l-13.067-0.127c-9.597-0.096-6.393-9.827-6.393-9.827
					c-4.527-0.073-6.777-1.805-7.452-4.396c-0.678-2.592,0.256-5.542,0.099-6.034c-0.16-0.491-1.56-0.775-1.56-0.775
					c-2.883,0.069-4.869-3.314-5.136-5.431C1334.897,943.829,1336.539,940.204,1337.854,939.237z"/>
				<path style="fill:#F7CC7F;" d="M1591.091,666.497c0,0,25.773,6.046,52.399,36.522c24.213,27.715,39.468,182.916,39.468,182.916
					l-83.605,13.77l-6.675-75.076l-22.34-34.34L1591.091,666.497z"/>
				<path style="fill:#F7A491;" d="M1512.466,473.084c-24.56-9.284-51.506,6.493-56.06,32.043
					c-1.981,11.108-3.891,25.09-4.628,40.417c-1.771,36.864,16.188,73.307,32.883,73.787c16.696,0.481,63.553-22.066,66.789-74.378
					C1553.447,512.653,1538.237,482.825,1512.466,473.084z"/>
				<path style="fill:#F7A491;" d="M1539.024,548.738c-0.244,8.135,4.936,14.888,11.567,15.078
					c6.631,0.19,12.207-6.251,12.451-14.387c0.241-8.137-4.938-14.885-11.57-15.077
					C1544.842,534.161,1539.269,540.602,1539.024,548.738z"/>
				<path style="fill:#13375B;" d="M1551.473,534.352c0,0-20.48,0.866-25.156-13.147c-4.674-14.015-25.018-46.348-60.188-41.84
					c-35.17,4.507,34.502-21.369,37.132-20.832c2.631,0.538,34.242,6.76,34.242,6.76s20.245,24.98,20.674,27.359
					c0.428,2.378,2.549,27.784,2.549,27.784L1551.473,534.352z"/>
				<path style="fill:#FFFFFF;" d="M1470.033,577.111l29.55,2.877c0,0-1.772,11.158-14.805,10.267
					C1468.888,589.172,1470.033,577.111,1470.033,577.111z"/>
			</g>
			<g>
				<g>
					<path style="fill:#C8D2DE;" d="M1232.083,790.675c0,0,0.938,13.201-3.192,18.075c-17.747,9.313-101.33,32.236-130.382,50.117
						c-11.958,3.433-68.072,8.614-86.854-32.309c17.554-3.629,36.594-7.02,47.209-9.962c13.328-3.694,105.324-42.52,120.658-44.344
						C1210.543,768.563,1232.083,790.675,1232.083,790.675z"/>
					<path style="fill:#FFFFFF;" d="M1030.437,614.821c0,0,95.52-36.592,187.789-74.666
						c45.948,137.226,47.286,250.655,10.665,268.594c-23.589,11.556-45.393-9.164-32.028-30.379
						c-94.323,29.872-137.999,38.225-137.999,38.225S1077.774,720.118,1030.437,614.821z"/>
					<g>
						<path style="fill:#DFE5ED;" d="M1129.228,615.982L1129.228,615.982c-1.715-4.072,0.196-8.763,4.269-10.478l60.974-25.675
							c4.071-1.715,8.763,0.196,10.477,4.268l0,0c1.715,4.072-0.196,8.764-4.268,10.479l-60.973,25.676
							C1135.634,621.965,1130.942,620.055,1129.228,615.982z"/>
					</g>
					<g>
						<path style="fill:#DFE5ED;" d="M1145.775,680.646L1145.775,680.646c-1.715-4.072,0.195-8.764,4.267-10.479l60.974-25.675
							c4.072-1.714,8.763,0.196,10.478,4.268l0,0c1.715,4.072-0.195,8.764-4.268,10.479l-60.974,25.675
							C1152.181,686.629,1147.49,684.719,1145.775,680.646z"/>
					</g>
					<g>
						<path style="fill:#DFE5ED;" d="M1151.789,703.402L1151.789,703.402c-1.715-4.072,0.195-8.764,4.268-10.478l60.974-25.675
							c4.072-1.715,8.763,0.197,10.478,4.269l0,0c1.715,4.072-0.195,8.763-4.268,10.478l-60.974,25.676
							C1158.194,709.386,1153.504,707.475,1151.789,703.402z"/>
					</g>
				</g>
				<g>
					<path style="fill:#466EB6;" d="M1093.429,654.724c-13.939-1.757-23.852-14.526-22.095-28.467
						c1.757-13.94,14.526-23.852,28.467-22.095c13.94,1.756,23.852,14.526,22.095,28.466
						C1120.139,646.568,1107.369,656.479,1093.429,654.724z M1099.48,606.701c-12.54-1.581-24.027,7.336-25.608,19.876
						c-1.58,12.54,7.337,24.027,19.877,25.607c12.54,1.58,24.027-7.336,25.608-19.876
						C1120.938,619.768,1112.021,608.28,1099.48,606.701z"/>
				</g>
				<g>
					<path style="fill:#466EB6;" d="M1107.504,724.85c-13.939-1.756-23.852-14.526-22.095-28.466
						c1.756-13.94,14.526-23.852,28.466-22.096c13.94,1.757,23.851,14.527,22.096,28.467
						C1134.214,716.694,1121.444,726.606,1107.504,724.85z M1113.556,676.827c-12.54-1.58-24.028,7.336-25.608,19.876
						c-1.58,12.54,7.336,24.028,19.877,25.608c12.54,1.58,24.027-7.336,25.607-19.877
						C1135.012,689.894,1126.096,678.407,1113.556,676.827z"/>
				</g>
				<path style="fill:#F47458;" d="M1103.789,607.048c-12.303,25.993-20.791,54.155-20.791,54.155
					c12.507-18.773,20.114-42.884,23.157-53.856L1103.789,607.048z"/>
				<path style="fill:#F47458;" d="M1069.372,619.727c30.394,6.459,60.691,25.074,60.691,25.074
					c-41.304-14.25-63.109-24.536-63.109-24.536L1069.372,619.727z"/>
			</g>
			<path style="fill:#F8A492;" d="M1124.588,587.658c4.021,18.727,7.929,8.829,9.969-5.171c0.301,8.56,2.47,9.295,4.553,8.288
				c2.517-1.216,6.363-20.141,4.434-23.786c-1.787-3.376-13.603,2.273-16.755,4.721c-2.052,0.959-4.359,2.131-6.983,3.04
				c-7.377,2.556-8.807,3.172-11.446,4.784c-4.068,2.485-2.427,6.789-1.514,13.268c2.163,8.654,7.783,8.51,7.878-4.595
				c0.277,1.262,2.369,12.792,5.437,13.004C1123.095,601.415,1123.637,596.931,1124.588,587.658z"/>
		</g>
		<g>
			<path style="fill:#F7A491;" d="M367.101,1711.461c0,0-6.459,45.058-17.572,59.597c-3.731,4.881-10.543,11.053-15.016,19.874
				c-6.961,13.729-3.112,34.168,2.022,45.426c0.435,0.981,3.645,3.482,5.826,4.25c17.774,5.514,36.674-0.398,44.242-17.518
				c4.227-9.564,7.936-22.32,8.682-38.395c1.897-40.91,14.549-61.712,14.549-61.712L367.101,1711.461z"/>
			<path style="fill:#F7A491;" d="M561.508,1732.068c0,0,3.988,50.809,0.751,67.32c-1.733,8.842-11.386,27.042-6.958,35.362
				c4.428,8.321,12.025,4.87,12.025,4.87l102.996,2.218c6.251,0.103,11.345,1.228,6.305-2.498
				c-8.25-6.103-14.907-10.135-41.261-22.955c-1.718-0.835-7.976-4.837-10.232-6.224c-5.722-3.514-11.468-9.044-16.415-14.583
				c-8.24-9.227-8.96-53.97-8.96-53.97L561.508,1732.068z"/>
			<path style="fill:#F7A491;" d="M651.201,1056.714c0,0,14.451,82.492,4.963,136.575c-9.488,54.08-54.001,580.451-54.001,580.451
				l-39.189-17.114c0,0-23.058-214.494-21.16-243.615c1.897-29.12,16.916-77.853,16.916-77.853l-5.037-169.068l63.864-222.107
				L651.201,1056.714z"/>
			<path style="fill:#F7A491;" d="M502.458,1039.364c0,0-39.849,60.321-49.337,110.242c-9.488,49.921,6.963,203.341-11.288,268.759
				c-9.88,35.413-47.327,90.102-53.02,135.862c-5.692,45.761-26.329,181.57-26.329,181.57l37.18,15.734l129.274-320.954
				l92.217-270.579l23.623-139.356L502.458,1039.364z"/>
			<path style="fill:#F47458;" d="M390.05,1814.084c-27.57,5.056-45.914-11.162-55.459-23.305
				c-7.007,13.754-10.426,34.279-5.271,45.578c4.539,9.953,17.805,9.666,28.251,10.058c11.044,0.412,19.589-5.757,25.069-15.431
				C385.199,1826.469,387.838,1820.844,390.05,1814.084z"/>
			<path style="fill:#F47458;" d="M625.118,1810.153c-30.35,7.831-52.784,2.507-65.334-2.582
				c-3.236,9.224-7.526,20.798-5.251,27.471c2.787,8.17,6.753,10.017,10.257,10.109c27.721,0.732,101.544,1.73,122.682,2.007
				c2.952,0.038,4.58-3.432,2.683-5.71C684.913,1835.151,627.379,1811.543,625.118,1810.153z"/>
			<g>
				<g>
					<path style="fill:#F7CC7F;" d="M661.323,614.385c1.47-35.444-3.75-70.445-19.608-103.444
						c-13.644-28.392-47.404-44.501-78.19-44.542c-97.759-0.126-110.19,129.038-172.419,178.86
						c-19.015,15.224-40.269,27.622-58.261,44.04c-66.439,60.624-36.512,172.842,24.494,225.99
						c42.335,36.88,108.87,57.835,161.047,29.005c27.236-15.051,47.913-40.067,62.642-67.477
						c20.906-38.902,34.382-83.787,49.252-125.249C646.106,707.438,659.367,661.497,661.323,614.385z"/>
					<g>
						<g>
							<g>
								<path style="fill:#F7A491;" d="M613.983,725.881c0,0-14.954,21.131-8.728,52.719
									c6.226,31.588,100.873,129.225,112.728,135.5c12.911,6.836,20.833,4.154,26.621,0.86
									c49.882-28.393,120.346-179.583,128.525-190.357c7.177-9.452,7.177-9.452,7.177-9.452l-6.944-25.421L735.499,841.297
									C735.499,841.297,622.843,715.361,613.983,725.881z"/>
								<path style="fill:#C8D2DE;" d="M597.355,699.813c0,0,10.7,4.31,13.947,6.342c21.965,13.751,93.943,92.137,93.943,92.137
									s-37.882,40.704-54.653,58.11l-95.792-72.064L597.355,699.813z"/>
								<g>
									<g>
										<path style="fill:#F47458;" d="M493.205,1045.055c-61.41,76.474-61.184,128.371-60.596,226.556
											c0.589,98.185,14.507,129.042-39.44,228.629c97.537,57.508,236.854,43.481,236.854,43.481
											c36.011-333.826,47.5-412.07,21.177-487.007C565.045,1057.008,493.205,1045.055,493.205,1045.055z"/>
										<path style="fill:#FFFFFF;" d="M529.431,686.311c0,0-56.259-3.576-78.517,20.634
											c-22.257,24.211,49.374,215.73,53.42,246.544c4.047,30.813-30.647,96.253-30.647,96.253s101.618,43.016,185.705,18.955
											c0,0-1.71-222.443-5.757-244.454c-4.046-22.012-37.772-111.521-45.865-120.326
											C599.675,695.113,529.431,686.311,529.431,686.311z"/>
										<path style="fill:#F7A491;" d="M548.16,611.286c0,0-0.291,1.654-0.814,4.468c-2.508,13.498-12.167,58.278-18.693,70.588
											c-7.886,14.877,26.997,62.326,60.572,56.535c9.995-1.724-8.447-43.597-7.561-48.032c1.696-8.49,3.997-20.074,6.352-31.951
											c1.327-6.699,2.672-13.493,3.936-19.877c3.59-18.144,6.52-32.983,6.52-32.983L548.16,611.286z"/>
										<path style="fill:#F47458;" d="M547.345,615.754c0.523-2.813,0.814-4.468,0.814-4.468l50.312-1.252
											c0,0-2.93,14.84-6.52,32.983c-1.256,6.35-2.593,13.103-3.914,19.766c-7.768-1.142-15.884-4.91-24.022-12.02
											c-8.872-7.75-14.687-17.064-18.196-27.007C546.439,620.582,546.956,617.847,547.345,615.754z"/>
										<path style="fill:#F7A491;" d="M582.022,497.156c0,0-23.714-2.734-38.579,16.452
											c-14.864,19.187-30.886,78.521,6.04,110.779c36.926,32.259,73.411-4.256,78.82-42.972
											C633.713,542.7,635.816,495.759,582.022,497.156z"/>
										<path style="fill:#F7CC7F;" d="M584.674,490.813c0,0-31.694,56.623-54.359,59.231
											c-22.664,2.607-25.626,32.389-25.626,32.389s8.103-69.085,30.54-82.408C557.667,486.702,584.674,490.813,584.674,490.813z
											"/>
										<path style="fill:#F7A491;" d="M536.273,564.021c1.843,10.021-1.805,19.65-8.221,20.966
											c-6.416,1.314-13.17-6.183-15.014-16.203c-1.843-10.02,1.864-19.209,8.28-20.524
											C527.734,546.944,534.43,554.002,536.273,564.021z"/>
									</g>
								</g>
							</g>
						</g>
					</g>
					<polygon style="fill:#466EB6;" points="690.782,1041.282 541.898,1045.055 534.228,838.521 691.849,839.019 					"/>
					<path style="fill:#F7A491;" d="M691.195,926.863c-0.375-0.807-11.705,4.791-20.618,2.828c-1.782-0.395,4.792-5.807,5.668-7.409
						c0.117-0.214,13.318-8.555,12.22-14.25c-1.098-5.693-12.448-2.028-12.448-2.028s-32.087,14.799-36.622,19.364
						c-4.531,4.564-6.438,7.986-6.73,8.407c-1.974,0.613-3.675,1.057-4.945,1.226c-29.516,3.792-77.723-2.939-151.176-14.484
						l-0.087-38.538c-15.553,0.921-42.708-1.786-55.234-3.191c0.658,29.392,0.288,80.363,6.572,90.085
						c4.406,6.819,43.177,11.41,86.323,14.705c54.965,4.215,69.378,1.071,117.119-2.256c14.461-1.067,34.323,3.348,41.868,3.395
						c11.213,0.07,15.152,1.32,20.818-4.572c4.78-4.969,4.218-17.204,3.424-24.776C695.851,941.022,695.374,935.525,691.195,926.863
						z"/>
					<path style="fill:#E4E8ED;" d="M478.377,691.611c0,0-31.75,5.822-47.168,34.087c-10.171,18.647-21.013,104.964-17.67,169.128
						c21.489-4.557,57.564-5.394,79.666-5.479C492.362,831.849,489.183,689.68,478.377,691.611z"/>
				</g>
				<path style="fill:#F7A491;" d="M767.66,811.701c0,0,75.729-93.74,90.595-108.472c14.866-14.732,75.451-57.719,77.206-53.183
					c1.755,4.534-32.894,38.375-32.406,39.635c0.487,1.26,6.066,10.964,8.064,16.129c1.999,5.165,2.516,17.579,0.817,21.422
					c-1.699,3.844-13.997,10.382-20.926,13.064c-6.929,2.681-16.881,1.248-25.167,8.654c-8.286,7.406-74.292,105.264-74.292,105.264
					L767.66,811.701z"/>
			</g>
		</g>
	</g>
</g>
</svg>
